<svg width="91" height="90" viewBox="0 0 91 90" fill="none" xmlns="http://www.w3.org/2000/svg">
<path d="M45.6511 89.9448C70.4492 89.9448 90.5521 69.8324 90.5521 45.0224C90.5521 20.2125 70.4492 0.100098 45.6511 0.100098C20.8529 0.100098 0.75 20.2125 0.75 45.0224C0.75 69.8324 20.8529 89.9448 45.6511 89.9448Z" fill="#F8E4D1"/>
<path d="M44.8243 7.77218V6.90159C44.8214 6.43022 44.9257 5.96436 45.1291 5.53917C45.3325 5.11398 45.6298 4.74058 45.9985 4.44713C46.3672 4.15369 46.7978 3.94787 47.2576 3.84521C47.7175 3.74255 48.1946 3.74574 48.653 3.85453C56.8436 5.80247 75.498 11.9184 78.0867 27.4257L77.2057 27.6542C76.9147 27.7338 76.6056 27.715 76.3263 27.6009C76.0471 27.4868 75.8133 27.2837 75.6611 27.0231C73.7141 23.6604 65.7194 12.0489 47.772 10.8845C46.981 10.8276 46.2399 10.4767 45.6944 9.90071C45.1489 9.32476 44.8385 8.56549 44.8243 7.77218Z" fill="#868C6D"/>
<path d="M77.7168 32.3228H79.0329C79.2422 32.3226 79.4447 32.397 79.6041 32.5326C79.7635 32.6682 79.8695 32.8561 79.9031 33.0628L80.4143 36.1425C80.4437 36.273 80.4433 36.4085 80.4133 36.5389C80.3832 36.6693 80.3242 36.7913 80.2406 36.8958C80.1571 37.0003 80.0511 37.0846 79.9305 37.1426C79.81 37.2006 79.6779 37.2307 79.5442 37.2307H78.6087C78.374 37.2307 78.1488 37.1382 77.9819 36.9732C77.8149 36.8082 77.7197 36.584 77.7168 36.3492V32.3228Z" fill="#868C6D"/>
<path d="M22.9831 63.3483C21.461 63.3875 19.9569 63.0113 18.6322 62.2601C17.3288 61.4572 16.2154 60.3803 15.3691 59.1042C14.4003 57.6337 13.6937 56.0063 13.2807 54.2942C12.8169 52.4084 12.6156 50.4675 12.6824 48.5266C12.7768 46.4419 13.035 44.3678 13.4547 42.3236C13.8908 40.0408 14.5055 37.7958 15.293 35.6092C16.0801 33.3601 17.0439 31.1768 18.1754 29.0798C19.2441 27.083 20.5557 25.2261 22.0803 23.5516C23.4802 22.0093 25.1271 20.711 26.9533 19.7101C28.7687 18.742 30.803 18.2585 32.8596 18.3063C34.0187 18.2695 35.167 18.5398 36.188 19.0898C37.0683 19.5994 37.8141 20.3121 38.3635 21.1683C38.9287 22.0611 39.3268 23.0494 39.5382 24.0848C39.7545 25.159 39.8494 26.2541 39.821 27.3495C39.7678 28.3942 39.6222 29.4321 39.3859 30.451C39.1739 31.3773 38.8372 32.2705 38.3852 33.1063C38.0037 33.8357 37.465 34.4713 36.808 34.9672C36.1835 35.4406 35.4159 35.6864 34.6326 35.6636C34.2454 35.6227 33.8731 35.4923 33.5449 35.2828C33.1789 35.0448 32.8492 34.7553 32.5659 34.4231C32.1668 33.9197 31.8543 33.3533 31.6414 32.7472C32.5091 32.3883 33.2245 31.7379 33.6645 30.9081C34.1408 30.0395 34.5062 29.1145 34.7523 28.1548C35.0552 26.9639 35.2445 25.7468 35.3179 24.5201C35.397 24.0146 35.3702 23.4981 35.2391 23.0035C35.1081 22.5089 34.8756 22.047 34.5565 21.6472C34.292 21.3662 33.9737 21.1414 33.6205 20.9862C33.2673 20.831 32.8864 20.7486 32.5007 20.7439C30.6831 20.8923 28.9908 21.7292 27.7691 23.0836C25.8997 24.9316 24.3422 27.0705 23.1572 29.4172C21.6186 32.3755 20.4147 35.4962 19.5677 38.7216C18.5813 42.3856 18.0121 46.1494 17.8708 49.9413C17.7834 51.4632 17.9041 52.99 18.2298 54.4792C18.4631 55.5783 18.9023 56.6233 19.5242 57.5589C19.9978 58.2834 20.6446 58.8781 21.4059 59.2892C22.0591 59.6252 22.7817 59.8041 23.5161 59.8116C24.6085 59.8158 25.6875 59.5701 26.6705 59.0934C27.6403 58.6217 28.5467 58.0294 29.368 57.3304C30.1336 56.6715 30.8364 55.9429 31.4673 55.1539C31.9818 54.5422 32.4473 53.8909 32.8596 53.206C33.0053 52.8777 33.2585 52.609 33.5775 52.4442C33.6857 52.3946 33.8051 52.3745 33.9235 52.386C34.0419 52.3975 34.1552 52.4401 34.2519 52.5095C34.4535 52.6832 34.5881 52.9218 34.6326 53.1842C34.6897 53.5587 34.6208 53.9415 34.4368 54.2725C33.8675 55.4132 33.2054 56.5051 32.4572 57.5372C31.6851 58.6062 30.8028 59.591 29.8249 60.4754C28.8819 61.3569 27.8111 62.0907 26.6487 62.6519C25.4933 63.1522 24.2414 63.3901 22.9831 63.3483Z" fill="#868C6D"/>
<path d="M61.8476 52.2593C61.8583 51.4893 61.9311 50.7214 62.0651 49.9631C62.2065 49.1034 62.3914 48.2111 62.609 47.3078C62.8265 46.4046 63.055 45.5122 63.2834 44.6525C63.5118 43.7928 63.6967 43.031 63.8599 42.3563C64.0762 41.7363 64.0762 41.0611 63.8599 40.4411C63.7616 40.2375 63.6067 40.0665 63.4138 39.9488C63.2208 39.831 62.9981 39.7715 62.7722 39.7772C62.2274 39.8907 61.7125 40.1168 61.2602 40.4411C60.3205 41.0673 59.4962 41.8516 58.8237 42.759C57.7847 44.1308 56.9188 45.6258 56.2458 47.2099C55.2443 49.4711 54.5387 51.8523 54.1465 54.2943C53.6087 54.5877 53.0291 54.7969 52.4279 54.9146C52.1451 54.9799 51.8841 55.0234 51.6665 55.0561C51.0248 55.0561 50.5788 54.9799 50.4265 54.7405C50.2743 54.5011 50.2634 53.9243 50.5136 52.9993C50.6441 52.5531 50.8725 51.8349 51.2097 50.8228C51.5469 49.8108 51.8732 48.7661 52.1886 47.5581C52.5041 46.3502 52.7869 45.2293 53.0262 44.0649C53.2464 43.0673 53.3667 42.0502 53.3851 41.0287C53.438 40.5903 53.3255 40.1479 53.0697 39.7881C52.9576 39.6693 52.8201 39.5773 52.6676 39.5189C52.5151 39.4605 52.3514 39.4372 52.1886 39.4508C51.6835 39.5157 51.1959 39.6783 50.7529 39.9296C49.8943 40.4014 49.1338 41.0331 48.5121 41.7905C47.5243 42.9589 46.6975 44.2545 46.0539 45.6428C45.0986 47.7087 44.3973 49.8829 43.9655 52.1178V52.0199C43.9111 52.2702 43.8458 52.5313 43.7806 52.7816C43.7157 53.0172 43.6684 53.2573 43.6392 53.4999C43.6063 53.7427 43.5554 53.9828 43.4869 54.2181L41.1048 55.3063C40.8975 55.3522 40.6862 55.3777 40.4739 55.3825C40.2421 55.4163 40.0056 55.3743 39.7995 55.2628C39.565 55.0984 39.4048 54.8482 39.3536 54.5663C39.2636 54.0405 39.2933 53.5012 39.4406 52.9884L42.4535 40.5063C42.5514 40.0928 42.6276 39.6902 42.6928 39.3093C42.7583 38.9718 42.7983 38.6298 42.8125 38.2863C42.8337 38.0053 42.8117 37.7227 42.7472 37.4484C43.2181 37.2231 43.7053 37.0339 44.2048 36.8825C44.6181 36.7519 44.9553 36.6649 45.2164 36.5996C45.4762 36.5131 45.7475 36.4654 46.0213 36.4581C47.0437 36.4581 47.3809 37.3287 47.0328 39.0808C46.9023 39.5922 46.7065 40.3431 46.4564 41.3334C47.0583 40.5704 47.7048 39.8436 48.3925 39.1569C49.0441 38.4991 49.7381 37.8847 50.47 37.3178C51.1379 36.7963 51.8688 36.3612 52.6455 36.0228C53.3114 35.717 54.0339 35.5539 54.7665 35.544C55.2636 35.5281 55.7487 35.6989 56.1262 36.0228C56.5123 36.3685 56.8106 36.8012 56.9964 37.2852C57.2127 37.8862 57.3303 38.5183 57.3444 39.1569C57.3721 39.8836 57.343 40.6113 57.2574 41.3334C57.7686 40.6696 58.3451 39.984 58.9543 39.2984C59.5553 38.6326 60.2101 38.0175 60.9121 37.4593C61.5836 36.9311 62.3135 36.482 63.0876 36.1208C63.7654 35.7884 64.5083 35.6101 65.263 35.5984C65.6284 35.5748 65.9946 35.6306 66.3363 35.7621C66.6781 35.8936 66.9873 36.0977 67.2427 36.3602C67.7264 36.9189 68.0563 37.594 68.1999 38.319C68.3749 39.1706 68.4225 40.0434 68.3413 40.909C68.2653 41.8091 68.1308 42.7034 67.9388 43.5861L66.3072 50.0393C65.9592 51.6281 66.3072 52.4334 67.3188 52.4334C68.2554 52.3529 69.1407 51.9711 69.8423 51.3452C70.8561 50.5266 71.7919 49.6159 72.6378 48.6246C73.5514 47.5363 74.3999 46.4481 75.1939 45.3599C75.9879 44.2716 76.695 43.4119 77.2388 42.6937C77.3851 42.4979 77.5979 42.3625 77.8371 42.3128C77.9275 42.2925 78.0214 42.2926 78.1117 42.3133C78.2021 42.3341 78.2866 42.3748 78.3592 42.4325C78.4367 42.4999 78.4984 42.5837 78.5398 42.6778C78.5811 42.7718 78.6012 42.8739 78.5985 42.9766C78.6008 43.3138 78.5105 43.645 78.3374 43.9343C77.6957 45.0225 76.9234 46.2849 75.9988 47.6452C75.0842 48.9858 74.0698 50.2554 72.9641 51.4431C71.9205 52.572 70.7403 53.5664 69.4507 54.4031C68.3052 55.1734 66.9586 55.5897 65.5785 55.6002C65.1358 55.6027 64.6943 55.5552 64.2623 55.4587C63.834 55.3621 63.4279 55.1849 63.0658 54.9363C62.6826 54.6564 62.3789 54.2813 62.1848 53.8481C61.9484 53.3526 61.8328 52.8081 61.8476 52.2593Z" fill="#868C6D"/>
</svg>
