<svg id="Layer_1" data-name="Layer 1" xmlns="http://www.w3.org/2000/svg" viewBox="0 0 114 102">
  <defs>
    <style>
      .cls-1 {
        fill: #f8e4d1;
      }

      .cls-2 {
        fill: #fff;
      }
    </style>
  </defs>
  <g>
    <circle class="cls-1" cx="55.76" cy="51.48" r="41.28"/>
    <path class="cls-2" d="M55,17.25v-.8a2.86,2.86,0,0,1,3.52-2.8c7.53,1.79,24.68,7.41,27.06,21.66l-.81.21a1.26,1.26,0,0,1-1.42-.58c-1.79-3.09-9.14-13.76-25.64-14.83A2.92,2.92,0,0,1,55,17.25Z"/>
    <path class="cls-2" d="M85.24,39.81h1.21a.81.81,0,0,1,.8.68l.47,2.83a.82.82,0,0,1-.8,1h-.86a.82.82,0,0,1-.82-.81Z"/>
    <g>
      <path class="cls-2" d="M34.92,68.32a7.71,7.71,0,0,1-4-1,9.71,9.71,0,0,1-3-2.9A14,14,0,0,1,26,60a19.39,19.39,0,0,1-.55-5.3A36.55,36.55,0,0,1,26.16,49a40.79,40.79,0,0,1,1.69-6.17,41.5,41.5,0,0,1,2.65-6,25.23,25.23,0,0,1,3.59-5.08,17.24,17.24,0,0,1,4.48-3.53A11,11,0,0,1,44,26.93a6.05,6.05,0,0,1,3.06.72,5.87,5.87,0,0,1,2,1.91,8,8,0,0,1,1.08,2.68,13.43,13.43,0,0,1,.26,3A16.28,16.28,0,0,1,50,38.09a9.66,9.66,0,0,1-.92,2.44,5.11,5.11,0,0,1-1.45,1.71,3.16,3.16,0,0,1-2,.64,2.31,2.31,0,0,1-1-.35,4.17,4.17,0,0,1-.9-.79,5.31,5.31,0,0,1-.85-1.54,3.71,3.71,0,0,0,1.86-1.69,10.88,10.88,0,0,0,1-2.53,17.87,17.87,0,0,0,.52-3.34A3.39,3.39,0,0,0,45.56,30a2.64,2.64,0,0,0-1.89-.83,6.58,6.58,0,0,0-4.35,2.15,22.35,22.35,0,0,0-4.24,5.82,41.21,41.21,0,0,0-3.3,8.55A46.27,46.27,0,0,0,30.22,56a15.38,15.38,0,0,0,.33,4.17A8.18,8.18,0,0,0,31.74,63a4.78,4.78,0,0,0,1.73,1.59,4.34,4.34,0,0,0,1.94.48,6.59,6.59,0,0,0,2.9-.66,11.77,11.77,0,0,0,2.48-1.62,15,15,0,0,0,1.93-2A14,14,0,0,0,44,59a1.45,1.45,0,0,1,.66-.7.62.62,0,0,1,.62.06,1.05,1.05,0,0,1,.35.62,1.57,1.57,0,0,1-.18,1,21.37,21.37,0,0,1-1.82,3,17.29,17.29,0,0,1-2.42,2.7,11.77,11.77,0,0,1-2.92,2A7.83,7.83,0,0,1,34.92,68.32Z"/>
      <path class="cls-2" d="M70.65,58.13a13.17,13.17,0,0,1,.2-2.11c.13-.79.3-1.61.5-2.44s.41-1.65.62-2.44.38-1.49.53-2.11a2.67,2.67,0,0,0,0-1.76,1.08,1.08,0,0,0-1-.61,3.67,3.67,0,0,0-1.39.61,9,9,0,0,0-2.24,2.13,19.22,19.22,0,0,0-2.37,4.09A26.41,26.41,0,0,0,63.57,60a5.51,5.51,0,0,1-1.58.57c-.26.06-.5.1-.7.13-.59,0-1-.07-1.14-.29s-.15-.75.08-1.6c.12-.41.33-1.07.64-2s.61-1.89.9-3,.55-2.14.77-3.21a14.12,14.12,0,0,0,.33-2.79,1.63,1.63,0,0,0-.29-1.14,1,1,0,0,0-.81-.31,3.61,3.61,0,0,0-1.32.44,7.07,7.07,0,0,0-2.06,1.71,15.73,15.73,0,0,0-2.26,3.54A25.86,25.86,0,0,0,54.21,58v-.09c-.05.23-.11.47-.17.7a4.53,4.53,0,0,0-.13.66,4.54,4.54,0,0,1-.14.66l-2.19,1A3,3,0,0,1,51,61a1,1,0,0,1-.62-.11,1,1,0,0,1-.41-.64,3.26,3.26,0,0,1,.08-1.45l2.77-11.47c.09-.38.16-.75.22-1.1a6.31,6.31,0,0,0,.11-.94,2.53,2.53,0,0,0-.06-.77A9.47,9.47,0,0,1,54.43,44c.38-.12.69-.2.93-.26a2.56,2.56,0,0,1,.74-.13c.94,0,1.25.8.93,2.41-.12.47-.3,1.16-.53,2.07a22.67,22.67,0,0,1,1.78-2,19.46,19.46,0,0,1,1.91-1.69,9.26,9.26,0,0,1,2-1.19,4.83,4.83,0,0,1,1.95-.44,1.83,1.83,0,0,1,1.25.44,3,3,0,0,1,.8,1.16,5.43,5.43,0,0,1,.32,1.72,12.84,12.84,0,0,1-.08,2c.47-.61,1-1.24,1.56-1.87a15,15,0,0,1,1.8-1.69,10.24,10.24,0,0,1,2-1.23,4.71,4.71,0,0,1,2-.48,2.33,2.33,0,0,1,1.82.7,3.91,3.91,0,0,1,.88,1.8,8.07,8.07,0,0,1,.13,2.38,19.15,19.15,0,0,1-.37,2.46l-1.5,5.93c-.32,1.46,0,2.2.93,2.2A4,4,0,0,0,78,57.29a19.39,19.39,0,0,0,2.57-2.5c.84-1,1.62-2,2.35-3S84.3,50,84.8,49.34a.92.92,0,0,1,.55-.35.57.57,0,0,1,.48.11.64.64,0,0,1,.22.5,1.69,1.69,0,0,1-.24.88c-.59,1-1.3,2.16-2.15,3.41a29.63,29.63,0,0,1-2.79,3.49,17,17,0,0,1-3.23,2.72,6.47,6.47,0,0,1-3.56,1.1,5.41,5.41,0,0,1-1.21-.13,3.18,3.18,0,0,1-1.1-.48,2.51,2.51,0,0,1-.81-1A3.19,3.19,0,0,1,70.65,58.13Z"/>
    </g>
  </g>
</svg>
