<svg id="Layer_1" data-name="Layer 1" xmlns="http://www.w3.org/2000/svg" viewBox="0 0 187.6188 226.7161"><defs><style>.cls-1{fill:#f2e6d8;}</style></defs><path class="cls-1" d="M5.9681,93.24A88.6611,88.6611,0,1,1,93.7287,181.982C45.1338,181.5208,5.7969,141.7949,5.9681,93.24Zm4.28-19.0921-.3746-.05c-.5261,3.9432-1.16,7.8756-1.5562,11.8319a81.2,81.2,0,0,0,1.6005,25.6942,85.0214,85.0214,0,0,0,26.7026,46.0044c16.2735,14.6263,35.4749,21.96,57.32,22.339a80.8907,80.8907,0,0,0,17.01-1.558,86.9587,86.9587,0,0,0,69.4817-72.8631,4.6666,4.6666,0,0,0-.6284-3.6291c-.9592-1.3685-1.7165-2.8773-2.658-4.2594A31.4848,31.4848,0,0,0,160.86,85.291a12.1666,12.1666,0,0,0-2.7706-.2806,13.46,13.46,0,0,0,.3648,2.9655,13.8634,13.8634,0,0,0,5.558,6.6989c2.0521,1.4263,2.0648,3.3293.015,4.7557a12.8515,12.8515,0,0,1-3.5267,1.6964c-4.2057,1.2894-8.1938.4958-12.0049-1.5254-.4212-.2234-.857-.4193-1.6022-.7818a15.7955,15.7955,0,0,0,.646,1.445,18.58,18.58,0,0,0,1.3036,2.0025c2.9085,3.6717,5.0389,4.187,9.29,2.2941,1.7336-.7718,3.3087-.22,3.7745,1.63a13.9963,13.9963,0,0,1,.2909,4.4771,11.5667,11.5667,0,0,1-8.9734,10.6283,4.53,4.53,0,0,0-3.6486,3.838,32.93,32.93,0,0,0-.1448,6.4259c.1641,3.1222-.357,5.8429-3.114,7.8062a8.15,8.15,0,0,0-3.4827,5.4012,8.3237,8.3237,0,0,1-4.0511,6.1033c-3.1437,1.9548-6.1719,4.0956-9.3175,6.0471-1.8383,1.14-3.6093.611-5.173-.7238a9.2784,9.2784,0,0,1-1.2471-1.2876,16.4883,16.4883,0,0,1-3.6231-8.3553c-.4547-4.0708-.404-8.1989-.5482-12.3032-.0991-2.8222.0032-5.6626-.2851-8.4639A15.5116,15.5116,0,0,0,115.7689,118a5.3427,5.3427,0,0,0-6.41-2.1522c-1.101.3376-2.1669.7938-3.24,1.2178-5.1552,2.0365-8.9437.77-11.8235-3.9836a21.1657,21.1657,0,0,1-2.8812-9.285c-.5158-5.9737.6361-11.51,4.5133-16.2882,2.5674-3.1641,5.9229-5.3172,9.3486-7.38,4.0949-2.4661,8.3514-3.2188,12.8867-1.2018a12.9433,12.9433,0,0,0,6.6015.6472c1.93-.18,2.4232-1.1015,1.6321-2.8571a14.99,14.99,0,0,0-4.3467-5.3341c-2.713-2.239-5.18-2.2153-7.83.0944-.9924.8649-1.8923,1.84-2.9142,2.6663-2.29,1.8514-4.7717,1.9894-6.9585.0473a16.5612,16.5612,0,0,1-3.6912-4.6135c-3.0469-5.881-1.1981-10.77,4.8308-13.5172a1.87,1.87,0,0,0,.84-1.1218,6.7409,6.7409,0,0,1,4.0769-4.9694,3.3277,3.3277,0,0,0,1.9878-2.6706,14.9027,14.9027,0,0,0-.2627-7.3385,5.8175,5.8175,0,0,1,1.8136-6.5193c5.236-4.4356,11.0684-6.7989,17.9972-4.3347a10.1569,10.1569,0,0,0,5.7666.37c1.8921-.4277,3.774-.9283,4.6333-2.9518.8974-2.1131-.3423-5.8734-2.3115-7.0668a85.9491,85.9491,0,0,0-56.772-12.081,84.3207,84.3207,0,0,0-29.7373,9.5986c-.357.1925-.7023.4066-1.0345.6a9.0945,9.0945,0,0,1,2.3738.5576,4.1389,4.1389,0,0,1,2.1273,3.7737,3.2483,3.2483,0,0,1-2.2563,3.0774,6.2821,6.2821,0,0,0-1.4906.7452,9.8175,9.8175,0,0,0-2.6643,2.619,11.5548,11.5548,0,0,0-.9518,6.9861c.35,2.1828,1.8643,3.1335,4.0881,2.8326,3.0743-.4159,5.0768-2.2992,6.6465-4.7994a4.6965,4.6965,0,0,1,5.2642-2.4175A6.29,6.29,0,0,1,71.12,36.6061a39.4354,39.4354,0,0,1-.0031,6.9153c-.27,3.4134-.612,6.8361-1.2081,10.2044-.5816,3.2864-2.7652,5.5062-6.6864,3.035a6.061,6.061,0,0,0-5.6259-.4212c-2.1782.817-2.6123,1.824-1.6554,3.9191,1.5124,3.3115.7914,5.566-2.4187,7.2683-1.5461.82-3.181,1.47-4.7474,2.2539a10.62,10.62,0,0,0-5.8655,7.1648c-.2893,1.1585-.4927,2.3383-.7434,3.5067-.1691.7884-.4931,1.4521-1.4206,1.5313-.934.08-1.3765-.5518-1.6657-1.28-.3077-.7745-.4943-1.5964-.7773-2.3818-.3113-.8637-.6721-1.7095-1.1487-2.9087-2.3116,3.4461-4.541,6.4574-5.733,10.0607a5.213,5.213,0,0,0-.1261,2.1251,16.5147,16.5147,0,0,0,4.9933,10.0785,5.121,5.121,0,0,0,4.5188,1.8786,2.1283,2.1283,0,0,1,2.5714,1.8021c.2141,1.4405,1.1574,1.7383,2.3046,1.9886a45.789,45.789,0,0,1,4.8637,1.1881c4.956,1.6682,8.9339,4.4867,11.0466,9.5263a6.5073,6.5073,0,0,0,2.0125,2.3048,25.1059,25.1059,0,0,0,3.2311,2.0437c2.1428,1.2311,4.4416,2.2368,6.4373,3.6684,4.1709,2.9921,5.5033,6.926,1.7587,11.3966a37.8245,37.8245,0,0,1-8.99,7.8311,3.8779,3.8779,0,0,0-2.02,3.7718,37.3548,37.3548,0,0,1-1.5276,11.0988,4.6223,4.6223,0,0,1-7.611,2.3249,14.6418,14.6418,0,0,1-3.0229-3.6712c-2.4195-4.3628-4.7319-8.7931-4.45-14.04.0664-1.2351-.59-1.9432-1.8091-2.4583a15.1436,15.1436,0,0,1-7.2661-5.8148c-1.1993-1.9271-2.1865-3.9854-3.3627-5.9281a13.9571,13.9571,0,0,1-1.7639-8.6378c.26-3.1331.6886-6.2546,1.1315-9.3687.1592-1.1194-.2817-1.5661-1.257-1.9215a15.0094,15.0094,0,0,1-3.8672-1.7512A49.9175,49.9175,0,0,1,15.6184,89.1624,50.8347,50.8347,0,0,1,10.2484,74.1482Zm95.65-16.0175c-2.3189,1.1017-4.094,2.5568-4.516,5.1319-.55,3.3588,1.7852,8.0313,4.7436,9.7325a2.9345,2.9345,0,0,0,3.6563-.2527c1.0636-.9036,2.0515-1.8957,3.1023-2.815,1.7746-1.5525,3.7611-2.6684,6.2062-2.1073,4.6981,1.0783,7.4667,4.4185,9.3162,8.5593,1.1752,2.6309-.1278,4.6395-2.9935,5.1331a15.3013,15.3013,0,0,1-8.46-.8427,8.8956,8.8956,0,0,0-5.837-.68A27.1192,27.1192,0,0,0,96.9107,89.634c-3.4214,4.4141-4.0361,9.6126-3.3431,15.0024a17.0212,17.0212,0,0,0,3.6174,8.9749,5.8447,5.8447,0,0,0,6.8386,2.0219c1.0985-.3494,2.1328-.9294,3.2461-1.197a17.2346,17.2346,0,0,1,4.9977-.8221c2.9194.1965,4.78,2.192,6.0905,4.66a23.2031,23.2031,0,0,1,2.6242,10.4636c.1112,4.8258-.0562,9.6579.0513,14.4838a17.239,17.239,0,0,0,3.7216,10.5253c1.5605,1.9736,2.4916,2.2439,4.5912.9308,3.2385-2.0254,6.3123-4.313,9.4812-6.4519a3.6919,3.6919,0,0,0,1.6208-2.5128c.637-3.2245,1.96-6.0915,4.7131-8.0575a5.1341,5.1341,0,0,0,2.2409-4.7354c-.0784-1.8738-.2594-3.75-.2166-5.6209.0954-4.171,2.0834-7.5274,6.4757-8.1986a6.6887,6.6887,0,0,0,4.3111-3.0084,12.5079,12.5079,0,0,0,2.3331-6.3174,4.3466,4.3466,0,0,0-.7738-3.6114c-.6181.3119-1.145.5937-1.6852.8471a6.7413,6.7413,0,0,1-4.2792.7435c-3.8175-.7622-8.01-5.03-8.6845-8.8707-.3082-1.7544.8031-2.7153,2.477-2.0755.9636.3683,1.8738.8772,2.8049,1.3291a12.7631,12.7631,0,0,0,8.5664,1.3555c1.7773-.4009,3.5608-.8451,4.8647-2.5479-.7913-.6087-1.5143-1.1539-2.2257-1.714a14.44,14.44,0,0,1-5.4894-8.8476c-.4522-2.3726,1.0837-3.9175,3.4577-3.5394a13.5015,13.5015,0,0,1,2.3182.55,32.6642,32.6642,0,0,1,14.2945,9.4783c1.7852,2.0691,3.3365,4.34,5.0887,6.6444a86.6529,86.6529,0,0,0-36.699-77.234c.0651.51.1112.8528.1526,1.1966.4991,4.1421-1.144,6.5758-5.2,7.6953a13.5438,13.5438,0,0,1-8.2182-.1912c-6.25-2.1468-11.3944.1371-15.99,4.2369a3.92,3.92,0,0,0-1.0834,4.0476,29.158,29.158,0,0,1,.6752,5.9038c.0225,3.1393-.955,5.77-4.2223,7.0873a3.7946,3.7946,0,0,0-2.0634,3.1135c1.6149.6257,1.94,1.0884,1.6227,2.3638a4.97,4.97,0,0,1-.5768,1.4289c-.462.7356-.929,1.6082-1.9935,1.456-1.1088-.1585-1.2031-1.1225-1.3521-1.9977A3.4758,3.4758,0,0,0,105.8985,58.1307ZM40.4944,78.1878c.1246-.4843.199-.7412.2566-1.0018a12.62,12.62,0,0,1,6.1717-8.7014c1.036-.59,2.1409-1.0585,3.2061-1.5987a33.3512,33.3512,0,0,0,3.3718-1.7781,2.4146,2.4146,0,0,0,.9066-3.2543c-.1577-.4084-.3526-.8023-.53-1.2032-1.0856-2.4554-.4221-4.5155,1.9615-5.73a8.4849,8.4849,0,0,1,8.5567.1391c2.0963,1.2047,2.758.8979,3.4676-1.4722a5.19,5.19,0,0,0,.2106-.8064c.2968-2.2917.6768-4.578.845-6.88.2063-2.8217.3373-5.6579.3037-8.4856-.0279-2.3542-1.41-3.75-3.8257-4.4219-2.0209-.5626-2.868.7631-3.775,2.1494A10.9967,10.9967,0,0,1,54.3474,40.16c-3.27.6537-6.0766-.9592-6.6054-4.2394a22.77,22.77,0,0,1,.1573-5.7938A7.6271,7.6271,0,0,1,52.65,23.72a15.687,15.687,0,0,0,1.6112-.7838c.7838-.483.8791-1.37.3189-2.3046-.4838-.807-1.0422-1.1111-1.947-.5162-1.4988.9855-3.0608,1.8746-4.5727,2.8411a11.2523,11.2523,0,0,1-5.6529,1.6948,2.5848,2.5848,0,0,0-1.38.55,86.42,86.42,0,0,0-29.2754,42.641,3.7632,3.7632,0,0,0-.21,1.5122,49.3115,49.3115,0,0,0,15.2384,30.8761c1.9544,1.8606,3.8789,3.8278,6.66,4.48,2.3546.5517,3.3051,2.0085,2.9086,4.3933-.3787,2.2782-.7813,4.5565-1.0376,6.85-.439,3.9279-.1789,7.7279,2.29,11.09a19.1055,19.1055,0,0,1,1.8327,3.2184c1.5045,3.2126,4.2237,5.0337,7.3156,6.3556a3.8733,3.8733,0,0,1,2.6076,3.4927c.2987,3.0735.2281,6.201,1.8828,9.0353,1.4981,2.5659,2.3574,5.5064,4.6664,7.5855,1.7871,1.6093,4.1844.9751,4.7077-1.3463a41.0264,41.0264,0,0,0,1.4427-10.9942A4.8046,4.8046,0,0,1,64.23,140.1c.87-.6346,1.7916-1.1978,2.67-1.8212a29.6,29.6,0,0,0,7.319-7.1729c1.4494-2.0829,1.4379-3.6131-.2213-5.5341a13.2886,13.2886,0,0,0-3.0994-2.569c-2.445-1.4978-4.9942-2.8246-7.479-4.259a9.4335,9.4335,0,0,1-4.2163-4.8788,8.41,8.41,0,0,0-1.39-2.2155c-3.0282-3.6749-7.1388-5.3605-11.6785-6.1692-2.305-.4106-4.4639-.9048-4.7411-3.8493a7.6272,7.6272,0,0,1-1.8531-.026,9.1412,9.1412,0,0,1-3.1791-1.1626A17.8,17.8,0,0,1,30.69,93.15c-1.1388-2.7094-2.1013-5.5437-1.1465-8.4742a32.4786,32.4786,0,0,1,5.8582-10.0852c1.15-1.4369,2.8129-1.185,3.738.4374A30.5672,30.5672,0,0,1,40.4944,78.1878Z"/><path class="cls-1" d="M105.8985,58.1307a3.4758,3.4758,0,0,1,.1933.4923c.149.8752.2433,1.8392,1.3521,1.9977,1.0645.1522,1.5315-.72,1.9935-1.456a4.97,4.97,0,0,0,.5768-1.4289c.3177-1.2754-.0078-1.7381-1.6227-2.3638a3.7946,3.7946,0,0,1,2.0634-3.1135c3.2673-1.3176,4.2448-3.948,4.2223-7.0873a29.158,29.158,0,0,0-.6752-5.9038,3.92,3.92,0,0,1,1.0834-4.0476c4.5958-4.1,9.7407-6.3837,15.99-4.2369a13.5438,13.5438,0,0,0,8.2182.1912c4.0556-1.1195,5.6987-3.5532,5.2-7.6953-.0414-.3438-.0875-.687-.1526-1.1966a86.6529,86.6529,0,0,1,36.699,77.234c-1.7522-2.3043-3.3035-4.5753-5.0887-6.6444a32.6642,32.6642,0,0,0-14.2945-9.4783,13.5015,13.5015,0,0,0-2.3182-.55c-2.374-.3781-3.91,1.1668-3.4577,3.5394a14.44,14.44,0,0,0,5.4894,8.8476c.7114.56,1.4344,1.1053,2.2257,1.714-1.3039,1.7028-3.0874,2.147-4.8647,2.5479a12.7631,12.7631,0,0,1-8.5664-1.3555c-.9311-.4519-1.8413-.9608-2.8049-1.3291-1.6739-.64-2.7852.3211-2.477,2.0755.6746,3.8405,4.867,8.1085,8.6845,8.8707a6.7413,6.7413,0,0,0,4.2792-.7435c.54-.2534,1.0671-.5352,1.6852-.8471a4.3466,4.3466,0,0,1,.7738,3.6114,12.5079,12.5079,0,0,1-2.3331,6.3174,6.6887,6.6887,0,0,1-4.3111,3.0084c-4.3923.6712-6.38,4.0276-6.4757,8.1986-.0428,1.871.1382,3.7471.2166,5.6209a5.1341,5.1341,0,0,1-2.2409,4.7354c-2.7527,1.966-4.0761,4.833-4.7131,8.0575a3.6919,3.6919,0,0,1-1.6208,2.5128c-3.1689,2.1389-6.2427,4.4265-9.4812,6.4519-2.1,1.3131-3.0307,1.0428-4.5912-.9308a17.239,17.239,0,0,1-3.7216-10.5253c-.1075-4.8259.06-9.658-.0513-14.4838a23.2031,23.2031,0,0,0-2.6242-10.4636c-1.3105-2.4683-3.1711-4.4638-6.0905-4.66a17.2346,17.2346,0,0,0-4.9977.8221c-1.1133.2676-2.1476.8476-3.2461,1.197a5.8447,5.8447,0,0,1-6.8386-2.0219,17.0212,17.0212,0,0,1-3.6174-8.9749c-.693-5.39-.0783-10.5883,3.3431-15.0024A27.1192,27.1192,0,0,1,111.1171,79.99a8.8956,8.8956,0,0,1,5.837.68,15.3013,15.3013,0,0,0,8.46.8427c2.8657-.4936,4.1687-2.5022,2.9935-5.1331-1.85-4.1408-4.6181-7.481-9.3162-8.5593-2.4451-.5611-4.4316.5548-6.2062,2.1073-1.0508.9193-2.0387,1.9114-3.1023,2.815a2.9345,2.9345,0,0,1-3.6563.2527c-2.9584-1.7012-5.2941-6.3737-4.7436-9.7325C101.8045,60.6875,103.58,59.2324,105.8985,58.1307Z"/><path class="cls-1" d="M40.4944,78.1878a30.5672,30.5672,0,0,0-1.3549-3.16c-.9251-1.6224-2.5884-1.8743-3.738-.4374a32.4786,32.4786,0,0,0-5.8582,10.0852c-.9548,2.93.0077,5.7648,1.1465,8.4742a17.8,17.8,0,0,0,5.671,7.2926,9.1412,9.1412,0,0,0,3.1791,1.1626,7.6272,7.6272,0,0,0,1.8531.026c.2772,2.9445,2.4361,3.4387,4.7411,3.8493,4.54.8087,8.65,2.4943,11.6785,6.1692a8.41,8.41,0,0,1,1.39,2.2155,9.4335,9.4335,0,0,0,4.2163,4.8788c2.4848,1.4344,5.034,2.7612,7.479,4.259a13.2886,13.2886,0,0,1,3.0994,2.569c1.6592,1.921,1.6707,3.4512.2213,5.5341a29.6,29.6,0,0,1-7.319,7.1729c-.8784.6234-1.8,1.1866-2.67,1.8212a4.8046,4.8046,0,0,0-2.1719,4.29,41.0264,41.0264,0,0,1-1.4427,10.9942c-.5233,2.3214-2.9206,2.9556-4.7077,1.3463-2.309-2.0791-3.1683-5.02-4.6664-7.5855-1.6547-2.8343-1.5841-5.9618-1.8828-9.0353a3.8733,3.8733,0,0,0-2.6076-3.4927c-3.0919-1.3219-5.8111-3.143-7.3156-6.3556a19.1055,19.1055,0,0,0-1.8327-3.2184c-2.469-3.3619-2.7291-7.1619-2.29-11.09.2563-2.2935.6589-4.5718,1.0376-6.85.3965-2.3848-.554-3.8416-2.9086-4.3933-2.7815-.6518-4.706-2.619-6.66-4.48A49.3115,49.3115,0,0,1,11.5423,69.3548a3.7632,3.7632,0,0,1,.21-1.5122,86.42,86.42,0,0,1,29.2754-42.641,2.5848,2.5848,0,0,1,1.38-.55,11.2523,11.2523,0,0,0,5.6529-1.6948c1.5119-.9665,3.0739-1.8556,4.5727-2.8411.9048-.5949,1.4632-.2908,1.947.5162.56.9346.4649,1.8216-.3189,2.3046A15.687,15.687,0,0,1,52.65,23.72a7.6271,7.6271,0,0,0-4.7509,6.407,22.77,22.77,0,0,0-.1573,5.7938c.5288,3.28,3.3359,4.8931,6.6054,4.2394a10.9967,10.9967,0,0,0,7.2743-5.0173c.907-1.3863,1.7541-2.712,3.775-2.1494,2.4152.6723,3.7978,2.0677,3.8257,4.4219.0336,2.8277-.0974,5.6639-.3037,8.4856-.1682,2.3017-.5482,4.588-.845,6.88a5.19,5.19,0,0,1-.2106.8064c-.71,2.37-1.3713,2.6769-3.4676,1.4722a8.4849,8.4849,0,0,0-8.5567-.1391c-2.3836,1.2148-3.0471,3.2749-1.9615,5.73.1773.4009.3722.7948.53,1.2032a2.4146,2.4146,0,0,1-.9066,3.2543,33.3512,33.3512,0,0,1-3.3718,1.7781c-1.0652.54-2.17,1.0086-3.2061,1.5987A12.62,12.62,0,0,0,40.751,77.186C40.6934,77.4466,40.619,77.7035,40.4944,78.1878Z"/><path class="cls-1" d="M50.6163,83.1886c.0057-4.141,2.0265-6.8232,5.74-7.5347a4.5219,4.5219,0,0,1,4.5548,1.473,3.4971,3.4971,0,0,1,.2377,4.1685,18.08,18.08,0,0,0-2.83,9.0541c-.0166,1.7414-1.6833,2.4878-3.3761,1.9164a4.19,4.19,0,0,1-2.7375-2.5176c-.7515-2.1146-1.2968-4.3026-1.9287-6.46Zm5.326,7.4014.3739-.2191a14.7546,14.7546,0,0,0,.2239-2.3167A7.9292,7.9292,0,0,1,58.07,82.785a11.4023,11.4023,0,0,0,1.3669-2.7639,1.61,1.61,0,0,0-1.3932-2.3441,4.5654,4.5654,0,0,0-4.9784,2.8649,10.7218,10.7218,0,0,0,1.1693,8.6226A6.8683,6.8683,0,0,0,55.9423,90.59Z"/><path class="cls-1" d="M55.9423,90.59a6.8683,6.8683,0,0,1-1.7082-1.4255,10.7218,10.7218,0,0,1-1.1693-8.6226,4.5654,4.5654,0,0,1,4.9784-2.8649,1.61,1.61,0,0,1,1.3932,2.3441A11.4023,11.4023,0,0,1,58.07,82.785,7.9292,7.9292,0,0,0,56.54,88.0542a14.7546,14.7546,0,0,1-.2239,2.3167Z"/><path class="cls-1" d="M49.9955,191.4157v1.6587H42.7714v4.9981H48.62v1.5962H42.7714v5.1342h7.2241v1.6592H40.724V191.4157Z"/><path class="cls-1" d="M59.8861,197.7155a.8419.8419,0,0,1-.168.1788.3987.3987,0,0,1-.2417.0629.6013.6013,0,0,1-.3413-.1313,4.9987,4.9987,0,0,0-.4673-.2886,3.9244,3.9244,0,0,0-.6875-.289,3.6463,3.6463,0,0,0-2.3676.1469,2.6731,2.6731,0,0,0-1.003.8033,3.6358,3.6358,0,0,0-.6089,1.27,6.2965,6.2965,0,0,0-.2045,1.6694,6.0954,6.0954,0,0,0,.22,1.7168,3.711,3.711,0,0,0,.62,1.26,2.6391,2.6391,0,0,0,.9712.7769,2.9949,2.9949,0,0,0,1.2861.2681,3.2777,3.2777,0,0,0,1.1236-.1631,3.4,3.4,0,0,0,.7348-.3623,5.2444,5.2444,0,0,0,.4834-.3623.5822.5822,0,0,1,.378-.1626.3954.3954,0,0,1,.3569.1787l.5249.6821a4.04,4.04,0,0,1-1.7324,1.2446,6.1477,6.1477,0,0,1-2.1944.3936,4.6436,4.6436,0,0,1-1.8535-.3677,4.2232,4.2232,0,0,1-1.4858-1.0654,5.0579,5.0579,0,0,1-.9922-1.7168,6.9108,6.9108,0,0,1-.3623-2.3208,6.9961,6.9961,0,0,1,.331-2.1943,4.9662,4.9662,0,0,1,.9659-1.7378,4.3768,4.3768,0,0,1,1.57-1.1392,5.2921,5.2921,0,0,1,2.1421-.41,5.056,5.056,0,0,1,1.9736.3623,4.7355,4.7355,0,0,1,1.523,1.024Z"/><path class="cls-1" d="M66.7425,195.6574a5.4665,5.4665,0,0,1,2.1055.3887,4.4415,4.4415,0,0,1,1.5957,1.1025,4.8878,4.8878,0,0,1,1.0083,1.7271,7.4739,7.4739,0,0,1,0,4.5308,4.8911,4.8911,0,0,1-1.0083,1.7221,4.38,4.38,0,0,1-1.5957,1.0972,5.9728,5.9728,0,0,1-4.21,0,4.427,4.427,0,0,1-1.6016-1.0972,4.9113,4.9113,0,0,1-1.0185-1.7221,7.3662,7.3662,0,0,1,0-4.5308,4.9076,4.9076,0,0,1,1.0185-1.7271,4.49,4.49,0,0,1,1.6016-1.1025A5.4656,5.4656,0,0,1,66.7425,195.6574Zm0,9.4922a2.73,2.73,0,0,0,2.3521-1.0551,6.0012,6.0012,0,0,0,0-5.9063,2.7251,2.7251,0,0,0-2.3521-1.06,3.2609,3.2609,0,0,0-1.3857.2729,2.5985,2.5985,0,0,0-.9819.7876,3.49,3.49,0,0,0-.5879,1.2651,7.4705,7.4705,0,0,0,0,3.3863,3.4407,3.4407,0,0,0,.5879,1.2549,2.62,2.62,0,0,0,.9819.7822A3.2609,3.2609,0,0,0,66.7425,205.15Z"/><path class="cls-1" d="M73.63,199.3747h5.1871V200.96H73.63Z"/><path class="cls-1" d="M81.82,206.4621v-9.04l-1.1763-.1362a.9374.9374,0,0,1-.3623-.1631.3817.3817,0,0,1-.1416-.32v-.7661h1.68v-1.0293a4.7273,4.7273,0,0,1,.2573-1.6221,3.2829,3.2829,0,0,1,.7349-1.1973,3.1152,3.1152,0,0,1,1.15-.74,4.2781,4.2781,0,0,1,1.5117-.252,4.0426,4.0426,0,0,1,1.3232.21l-.042.9346a.2389.2389,0,0,1-.1787.2519,2.0355,2.0355,0,0,1-.4726.042h-.3252a2.8687,2.8687,0,0,0-.877.126,1.658,1.658,0,0,0-.6772.41,1.8482,1.8482,0,0,0-.4356.7456,3.6984,3.6984,0,0,0-.1523,1.1445v.9766h3.0767V197.39H83.7v9.0718Z"/><path class="cls-1" d="M88.4774,206.4621V195.8254h1.0708a.59.59,0,0,1,.42.1157.71.71,0,0,1,.1577.399l.126,1.6591a4.86,4.86,0,0,1,1.3491-1.7378,3.1752,3.1752,0,0,1,2.6827-.5249,2.7757,2.7757,0,0,1,.6616.2784l-.2417,1.3964a.3153.3153,0,0,1-.3252.2623,1.6377,1.6377,0,0,1-.4517-.1,2.8516,2.8516,0,0,0-.8506-.1,2.41,2.41,0,0,0-1.6328.5669,4.2574,4.2574,0,0,0-1.0971,1.6485v6.7724Z"/><path class="cls-1" d="M99.44,192.4865a1.1853,1.1853,0,0,1-.1108.5093,1.47,1.47,0,0,1-.294.42,1.3655,1.3655,0,0,1-.4253.2891,1.28,1.28,0,0,1-.5146.105,1.2434,1.2434,0,0,1-.5093-.105,1.4015,1.4015,0,0,1-.7085-.709,1.2333,1.2333,0,0,1-.105-.5093,1.3091,1.3091,0,0,1,.105-.5195,1.3461,1.3461,0,0,1,.2886-.4307,1.3832,1.3832,0,0,1,.42-.2885,1.2418,1.2418,0,0,1,.5093-.105,1.2785,1.2785,0,0,1,.5146.105,1.3654,1.3654,0,0,1,.4253.2885,1.4389,1.4389,0,0,1,.294.4307A1.2578,1.2578,0,0,1,99.44,192.4865Zm-.4209,3.3389v10.6367H97.15V195.8254Z"/><path class="cls-1" d="M106.5267,195.6574a4.75,4.75,0,0,1,1.7637.32,3.9545,3.9545,0,0,1,1.3965.9243,4.2059,4.2059,0,0,1,.9189,1.4907,5.7566,5.7566,0,0,1,.3311,2.0215,1.2137,1.2137,0,0,1-.0947.5879.3909.3909,0,0,1-.3565.1469h-7.0771a5.8647,5.8647,0,0,0,.2724,1.7535,3.5807,3.5807,0,0,0,.6934,1.2441,2.7731,2.7731,0,0,0,1.05.7456,3.6061,3.6061,0,0,0,1.3652.2466,3.9955,3.9955,0,0,0,1.2129-.1626,5.7935,5.7935,0,0,0,.877-.3516,6.7788,6.7788,0,0,0,.6142-.352.8121.8121,0,0,1,.4248-.1626.4115.4115,0,0,1,.3575.1787l.5244.6821a3.5461,3.5461,0,0,1-.8291.73,5.17,5.17,0,0,1-1.0342.5093,6.6093,6.6093,0,0,1-1.14.2993,6.9609,6.9609,0,0,1-1.165.1,5.4156,5.4156,0,0,1-2.0322-.3726,4.4609,4.4609,0,0,1-1.6065-1.0922,5.03,5.03,0,0,1-1.0556-1.78,7.2361,7.2361,0,0,1-.378-2.4361,6.1972,6.1972,0,0,1,.3418-2.0786,4.9018,4.9018,0,0,1,.9815-1.6748,4.5152,4.5152,0,0,1,1.5644-1.1133A5.147,5.147,0,0,1,106.5267,195.6574Zm.042,1.3755a2.8723,2.8723,0,0,0-2.1318.7823,3.6858,3.6858,0,0,0-.9658,2.1684h5.7861a3.7838,3.7838,0,0,0-.1787-1.1919,2.6573,2.6573,0,0,0-.5254-.9346,2.3509,2.3509,0,0,0-.8447-.6088A2.8623,2.8623,0,0,0,106.5687,197.0329Z"/><path class="cls-1" d="M113.32,206.4621V195.8254h1.1133a.4772.4772,0,0,1,.5039.3887l.1465,1.1553a5.9728,5.9728,0,0,1,1.5488-1.2393,4.03,4.03,0,0,1,1.98-.4727,3.8413,3.8413,0,0,1,1.5381.2891,2.98,2.98,0,0,1,1.1133.8188,3.6016,3.6016,0,0,1,.6767,1.2759,5.5418,5.5418,0,0,1,.2315,1.6485v6.7724h-1.8692V199.69a2.8664,2.8664,0,0,0-.5508-1.8745,2.0625,2.0625,0,0,0-1.6855-.6666,3.1417,3.1417,0,0,0-1.5488.399,5.1051,5.1051,0,0,0-1.3282,1.0815v7.833Z"/><path class="cls-1" d="M132.4828,206.4621a.4754.4754,0,0,1-.5039-.3886l-.168-1.2915a5.6086,5.6086,0,0,1-1.56,1.3286,3.9957,3.9957,0,0,1-2.0107.4985,3.8408,3.8408,0,0,1-1.6592-.3516,3.4338,3.4338,0,0,1-1.27-1.0341,4.9428,4.9428,0,0,1-.8086-1.7012,8.7775,8.7775,0,0,1-.2832-2.3418,7.34,7.34,0,0,1,.3145-2.189,5.3217,5.3217,0,0,1,.9091-1.7588,4.1644,4.1644,0,0,1,3.375-1.5962,3.8465,3.8465,0,0,1,1.67.3311,4.004,4.004,0,0,1,1.2392.9292v-5.9009h1.8682v15.4663Zm-3.6231-1.3652a3.01,3.01,0,0,0,1.6016-.42,4.6266,4.6266,0,0,0,1.2656-1.1866v-5.145a2.9664,2.9664,0,0,0-1.1289-.9712,3.27,3.27,0,0,0-1.36-.2783,2.6935,2.6935,0,0,0-2.2891,1.0606,4.959,4.959,0,0,0-.7978,3.0239,7.6743,7.6743,0,0,0,.1787,1.78,3.4164,3.4164,0,0,0,.5254,1.2182,2.0547,2.0547,0,0,0,.85.6983A2.8563,2.8563,0,0,0,128.86,205.0969Z"/><path class="cls-1" d="M138.8138,190.9958v15.4663h-1.8691V190.9958Z"/><path class="cls-1" d="M145.2289,209.6018a.9714.9714,0,0,1-.2364.3359.6388.6388,0,0,1-.4355.126h-1.3857l1.9423-4.2212-4.3886-10.0171h1.6172a.5532.5532,0,0,1,.3779.1211.76.76,0,0,1,.1992.2676l2.8457,6.6992a4.8125,4.8125,0,0,1,.1621.4619q.0689.2307.1211.4727.0732-.2418.1475-.4727t.1679-.4726l2.7608-6.6885a.6.6,0,0,1,.2158-.2783.5539.5539,0,0,1,.33-.11h1.4912Z"/></svg>