<svg id="Layer_1" data-name="Layer 1" xmlns="http://www.w3.org/2000/svg" viewBox="0 0 187.6188 223.6649"><defs><style>.cls-1,.cls-2{fill:#868c6d;}.cls-2{font-size:21px;font-family:Lato-Regular, Lato;}</style></defs><path class="cls-1" d="M93.845,185.0332a88.6936,88.6936,0,1,1,88.6291-86.919A88.5957,88.5957,0,0,1,93.845,185.0332Zm76.717-48.6a2.3252,2.3252,0,0,0-.5326-.246c-5.4457-.9842-10.8605-2.2469-16.3478-2.867a74.38,74.38,0,0,0-23.786,1.5463A148.8338,148.8338,0,0,0,109.1809,141c-3.5044,1.2916-6.5879.4331-9.3537-1.8666-1.0413-.8657-1.9673-1.87-2.9486-2.8079a23.9049,23.9049,0,0,0-9.17-5.47c-3.9306-1.293-7.891-2.4986-11.799-3.856a32.5948,32.5948,0,0,1-9.1451-4.3439c-2.3333-1.7531-4.1615-3.9058-4.4895-6.9321a34.1744,34.1744,0,0,0-4.3276-13.1954c-1.8588-3.3-3.8862-6.506-5.7429-9.8076a12.9753,12.9753,0,0,1-1.79-9.205,7.7961,7.7961,0,0,0-.5807-5.1855c-1.0168-2.1368.3841-4.3514,3.0953-3.9252a24.1154,24.1154,0,0,1,5.6659,1.7609,2.2855,2.2855,0,0,0,2.2963.0432,4.7585,4.7585,0,0,1,6.0552.7643A17.3986,17.3986,0,0,1,70.06,81.12a28.19,28.19,0,0,1,1.5934,4.3861,2.1086,2.1086,0,0,0,.451.0518c3.0494-.2784,4.6933,1.74,5.0262,4.564.1772,1.5032.4917,2.99.7137,4.4881.3672,2.4778,1.1053,4.7632,3.34,6.2111a3.0725,3.0725,0,0,0,1.6451.5194c6.22-.193,12.4445-.3442,18.6567-.7,7.0908-.4055,13.6123-2.46,19.14-7.16A17.021,17.021,0,0,1,130.66,89.4178a52.7471,52.7471,0,0,1,17.5361,1.8089,229.6064,229.6064,0,0,1,30.72,11.1975c.38.1636.77.3037,1.1918.469,3.538-37.92-20.9716-80.0751-66.4287-90.8921A86.6552,86.6552,0,1,0,170.562,136.4332Zm-97.34-33.8a64.29,64.29,0,0,1-8.3982-10.7221c-1.5846-2.3453-3.3176-4.5929-5.038-6.843a8.6875,8.6875,0,0,0-4.7582-3.0453c-1.5287-.421-2.3743.1567-2.6443,1.7115a10.79,10.79,0,0,0,1.1326,6.9639C54.9,93.3442,56.4616,95.9,57.9964,98.4647c2.8853,4.8219,5.3756,9.8138,6.0445,15.4723a9.1125,9.1125,0,0,0,3.265,6.5343,14.277,14.277,0,0,0,3.2129,2.0513c3.7831,1.5768,7.598,3.0865,11.4517,4.4809,2.6167.9468,5.3678,1.5265,7.9718,2.5028a28.2424,28.2424,0,0,1,10.3886,7.3077,7.6755,7.6755,0,0,0,8.9134,2.0537c4.6352-1.6823,9.3529-3.1681,14.1021-4.4989A82.7863,82.7863,0,0,1,163.579,132.74c2.6774.5737,5.36,1.1231,8.0886,1.6938a86.79,86.79,0,0,0,8.2868-28.4441c.0909-.79-.3033-1.0424-.9009-1.2854-4.7955-1.95-9.5414-4.0315-14.387-5.8473-9.1392-3.4248-18.2793-6.8346-28.1885-7.4677-5.8454-.3735-11.1809.4644-15.721,4.53a23.21,23.21,0,0,1-4.2922,2.81c-5.97,3.31-12.5609,3.9675-19.1978,4.2735-5.5383.2553-11.0882.2656-16.6248.5463a59.81,59.81,0,0,0-6.4717,1.0115l.049.4753c.5817.06,1.1627.1275,1.7452.1784,1.6288.1424,3.2583.2768,4.8873.4162a2.7689,2.7689,0,0,1,2.6238,2.3983,8.1291,8.1291,0,0,1-.4726,5.1619,4.6444,4.6444,0,0,1-3.4011,2.7537c-.6246.1245-1.2656.1661-1.892.2833-1.0369.1941-2.068.4188-3.1016.6305a3.1882,3.1882,0,0,0,1.455.5917,51.9571,51.9571,0,0,0,14.5523.308,53.9182,53.9182,0,0,0,8.69-1.4314,17.7858,17.7858,0,0,1,8.83-.21,56.118,56.118,0,0,0,8.7276,1.2785,42.3136,42.3136,0,0,0,15.1043-1.4025c.14.4272.2617.7533.3516,1.0879.07.26.1.5313.1565.8451-.233.0824-.4084.1624-.5924.207a50.5326,50.5326,0,0,1-24.5074-.0762,12.5382,12.5382,0,0,0-7.2954.2056,19.4134,19.4134,0,0,1-2.9867.8328,77.8765,77.8765,0,0,1-17.3022.8554,27.5492,27.5492,0,0,1-6.5719-1.1481,7.9324,7.9324,0,0,1-3.7233-13.0751A29.6072,29.6072,0,0,1,73.2218,102.633Zm8.4338,7.035c-.1211-.6544.1993-1.9162-1.15-2.0379-2.8973-.2614-5.8088-.401-8.7173-.4692a2.0868,2.0868,0,0,0-1.4725.9131,5.5181,5.5181,0,0,0,.5728,6.8511,1.3435,1.3435,0,0,0,1.6407.4808,48.69,48.69,0,0,1,5.4631-1.2659C80.6312,113.7048,81.6434,112.6218,81.6556,109.668ZM61.7927,78.0821A62.48,62.48,0,0,1,66.205,85.22c1.3371,2.9471,2.1019,6.15,3.196,9.2137a18.6719,18.6719,0,0,0,1.4,2.591c-.2173-3.5308-.6111-6.93-1.1373-10.3075a15.1033,15.1033,0,0,0-2.7485-7.0443C65.2824,77.5479,63.6146,77.1263,61.7927,78.0821ZM71.752,87.79c.6668,4.0321,1.3044,7.9962,1.9883,11.9523.1847,1.0684,1.6116,2.439,2.3739,2.3435.8615-.1078,1.7117-.305,2.791-.5049-2.0929-1.8839-2.6833-4.2535-3.0459-6.7332-.2532-1.7319-.5257-3.4648-.8925-5.1751C74.5926,87.9285,73.8478,87.4879,71.752,87.79ZM65.482,89.08l.2112-.0964c-.3536-.8274-.6887-1.6633-1.064-2.4806a19.6986,19.6986,0,0,0-6.0837-7.9992,11.6671,11.6671,0,0,0-6.0085-2.0826c-.5276-.047-1.13-.0191-.8707.8261.2877.9374.5848,1.8718.8453,2.7039a15.7536,15.7536,0,0,1,2.3435.0178,9.8208,9.8208,0,0,1,6.1357,3.3982C62.5525,85.2164,63.99,87.1711,65.482,89.08Z"/><path class="cls-1" d="M106.025,76.9052c-.1933,1.6582-.3422,3.6028-.6744,5.5156a2.8183,2.8183,0,0,1-1.8078,2.36,1.7676,1.7676,0,0,1-2.4217-1.3471,32.3638,32.3638,0,0,1-1.3794-6.3781c-.286-3.17-.2517-6.3708-.2972-9.5593a10.0565,10.0565,0,0,1,.31-2.4784,1.9681,1.9681,0,0,1,1.5877-1.7363,2.0873,2.0873,0,0,1,2.4325,1.106,21.72,21.72,0,0,1,1.5668,4.8389C105.736,71.6557,105.7967,74.1391,106.025,76.9052Zm-2.9011,6.8287a5.9,5.9,0,0,0,1.1577-3.6719,39.3571,39.3571,0,0,0-.8051-13.188,7.1613,7.1613,0,0,0-1.1021-2.3506c-.4954-.7031-1.0869-.54-1.3906.2866a2.4341,2.4341,0,0,0-.1346.9366c.2373,4.7778.434,9.5589.7751,14.3295C101.7133,81.32,101.7834,82.7282,103.1239,83.7339Z"/><path class="cls-1" d="M96.91,76.8155c-.1815,1.6476-.3472,3.5072-.6129,5.3524a4.2755,4.2755,0,0,1-.68,1.6354c-.9761,1.51-2.8768,1.521-3.4733-.1455a27.5812,27.5812,0,0,1-1.5055-6.583c-.305-3.1669-.2531-6.37-.304-9.5585a9.9428,9.9428,0,0,1,.2753-2.3637c.2-.8682.5622-1.6933,1.6045-1.8672a2.189,2.189,0,0,1,2.5776,1.2822,20.8157,20.8157,0,0,1,1.4441,4.6381C96.6114,71.6393,96.6874,74.1192,96.91,76.8155Zm-3.1383,6.8791.461-.054a5.6406,5.6406,0,0,0,.6181-1.61c.1705-3.1756.45-6.3638.3134-9.5313a35.7229,35.7229,0,0,0-1.2631-6.8941c-.1439-.5843-.9627-1.0024-1.4714-1.4968a5.91,5.91,0,0,0-.6643,1.9153q.1531,6.0387.5005,12.0715a25.5329,25.5329,0,0,0,.6956,4.1184A6.0993,6.0993,0,0,0,93.7718,83.6946Z"/><path class="cls-1" d="M111.9852,83.53c.6457-2.8148,1.2181-5.5,1.8828-8.1618q1.3737-5.5008,2.886-10.9664c.0962-.35.5952-.5887.9073-.8791.2015.4641.6428.9733.5654,1.385-.4921,2.6194-1.0692,5.2241-1.6751,7.82-.7415,3.1769-1.5347,6.3418-2.316,9.5093a5.2817,5.2817,0,0,1-.48,1.4689,5.7715,5.7715,0,0,1-1.0471,1.0351Z"/><path class="cls-1" d="M86.4376,83.423a6.5572,6.5572,0,0,1,1.3273.0261.9993.9993,0,0,1,.6056.5745c.0442.1168-.2838.5356-.4661.5512-1.3412.1154-2.6879.1788-4.0339.2082-.1307.0029-.4124-.38-.3732-.5056.0789-.2527.3128-.6211.5143-.6423.8-.0841.83-.5835.7955-1.1864-.2508-4.3351-.5052-8.67-.7375-13.0062-.0573-1.0695-.0525-2.1432-.0493-3.2149.004-1.3486-.2284-1.5914-1.5952-1.79-.2759-.04-.514-.3413-.7695-.5221.22-.1948.4242-.5335.6614-.5582a10.1351,10.1351,0,0,1,2.3792-.0187c.229.0307.534.5913.5534.9237.3688,6.32.7,12.6417,1.0419,18.963C86.2933,83.2587,86.3368,83.29,86.4376,83.423Z"/><path class="cls-1" d="M108.1565,69.4087c.2324-1.4376.3732-2.8686.72-4.2478.2145-.8525.5621-1.79,1.7174-1.89A2.22,2.22,0,0,1,113.1,64.8778a20.1884,20.1884,0,0,1,.66,4.3135,28.9213,28.9213,0,0,1-.2087,3.5733c-.095,1.4564-.71,2.3007-1.8051,2.47a2.2581,2.2581,0,0,1-2.892-1.8224A39.9018,39.9018,0,0,1,108.1565,69.4087Zm4.4372-.0243c-.2359-1.1957-.4524-2.5233-.7874-3.82-.0782-.3031-.5581-.5025-.8531-.75a2.9569,2.9569,0,0,0-.6012.7626,12.0025,12.0025,0,0,0-.12,7.1663c.0993.3621.56.9259.769.8911a1.429,1.429,0,0,0,.9975-.8021C112.2824,71.7676,112.3893,70.6556,112.5937,69.3844Z"/><path class="cls-1" d="M122.1542,78.8451c-.24,1.4111-.3764,2.6783-.6966,3.8972a3.4964,3.4964,0,0,1-1.0154,1.57,1.8866,1.8866,0,0,1-3.1652-.6155,12.1321,12.1321,0,0,1-.0645-8.9859,1.9569,1.9569,0,0,1,2.0123-1.3928,2.0344,2.0344,0,0,1,2.1115,1.4472C121.7374,76.1188,121.9047,77.542,122.1542,78.8451Zm-1.4911.3367c-.1869-1.1589-.2979-2.2665-.5733-3.3315-.0982-.38-.5948-.6569-.91-.9809-.2852.3321-.7314.6228-.8288,1.0031a10.2668,10.2668,0,0,0,.0057,6.21,4.4474,4.4474,0,0,0,.7018.9774c.3449-.2935.8838-.5267.9973-.892A26.9725,26.9725,0,0,0,120.6631,79.1818Z"/><text class="cls-2" transform="translate(46.912 206.2943)">Handmade</text></svg>