<svg id="Layer_1" data-name="Layer 1" xmlns="http://www.w3.org/2000/svg" viewBox="0 0 208.8789 170.2091"><defs><style>.cls-1{fill:#f7e3d1;stroke:#d2d6c6;stroke-miterlimit:10;}</style></defs><path class="cls-1" d="M98.3807,55.6015c2.2071-3.0033,4.259-5.9437,6.4624-8.7659,6.64-8.5055,13.5631-16.7784,21.671-23.942,8.3054-7.338,17.36-13.5483,27.9351-17.2244,6.5153-2.2649,13.1494-3.2286,19.9738-1.41,6.3283,1.6864,11.196,5.4637,15.1026,10.5733,5.034,6.5842,7.8621,14.1707,9.8266,22.1243a65.5046,65.5046,0,0,1,2.1521,15.9594,62.0457,62.0457,0,0,1-3.94,21.4048c-3.4038,9.2138-8.4926,17.4766-14.2722,25.3445-7.0017,9.5316-14.3076,18.8149-22.7287,27.16A190.0572,190.0572,0,0,1,113.53,160.8815c-2.7272,1.4055-5.53,2.6653-8.2535,4.0767a2.418,2.418,0,0,1-2.538-.0392,236.9906,236.9906,0,0,1-35.7646-23.2725,290.8277,290.8277,0,0,1-24.9211-21.5088A126.473,126.473,0,0,1,14.0564,79.2129c-3.29-7.8262-6.5284-15.6586-8.5174-23.9418A53.7563,53.7563,0,0,1,4.0411,35.5772,29.4108,29.4108,0,0,1,17.585,13.8534C29.3687,6.1907,42.0779,3.9363,55.5988,8.395c6.98,2.3018,12.7889,6.6362,18.0649,11.6566C83.8245,29.72,91.4419,41.2043,97.5217,53.7681,97.7985,54.34,98.0613,54.9188,98.3807,55.6015Z"/></svg>