<svg width="38" height="50" viewBox="0 0 38 50" fill="none" xmlns="http://www.w3.org/2000/svg">
<path fill-rule="evenodd" clip-rule="evenodd" d="M34.6103 6.66667H7.89977L5.61756 1.02559C5.3614 0.39241 4.87679 0 4.351 0H1.45033C0.649337 0 0 0.895431 0 2C0 3.10457 0.649337 4 1.45033 4H3.49937L5.75163 9.56707L10.9459 25.4157L10.9512 25.4319L11.4087 26.8278L6.19364 34.4988C5.81866 35.0504 5.70127 35.8464 5.89027 36.5561C6.07926 37.2658 6.54231 37.7679 7.08703 37.8537L11.8405 38.6029C17.7863 39.5399 23.7901 39.5399 29.7358 38.6029L34.4893 37.8537C35.2851 37.7283 35.8565 36.737 35.7656 35.6396C35.6746 34.5422 34.9558 33.7542 34.1599 33.8796L29.4065 34.6288C23.6796 35.5313 17.8968 35.5313 12.1699 34.6288L10.2834 34.3315L14.1111 28.7012C14.1481 28.6468 14.1825 28.5902 14.2143 28.5318L15.6701 28.793C17.7101 29.1591 19.7722 29.2308 21.8229 29.0072C26.6061 28.4855 31.0391 25.3469 34.1341 20.2909L35.2519 18.4647C35.2895 18.4033 35.3243 18.339 35.3562 18.2718L37.4396 13.8936C38.9164 10.7902 37.302 6.66667 34.6103 6.66667ZM14.3221 24.5175C14.0022 24.4601 13.7264 24.1799 13.5917 23.7761L13.5891 23.7683L9.29518 10.6667H34.6103C34.9948 10.6667 35.2254 11.2557 35.0145 11.6991L32.979 15.9766L31.9175 17.7107C29.3223 21.9504 25.6051 24.5822 21.5942 25.0196C19.7444 25.2214 17.8844 25.1566 16.0443 24.8265L14.3221 24.5175Z" fill="#F8E4D1"/>
<path d="M10.1523 42C8.55035 42 7.25168 43.7909 7.25168 46C7.25168 48.2091 8.55035 50 10.1523 50C11.7543 50 13.053 48.2091 13.053 46C13.053 43.7909 11.7543 42 10.1523 42Z" fill="#F8E4D1"/>
<path d="M28.5233 46C28.5233 43.7909 29.8219 42 31.4239 42C33.0259 42 34.3246 43.7909 34.3246 46C34.3246 48.2091 33.0259 50 31.4239 50C29.8219 50 28.5233 48.2091 28.5233 46Z" fill="#F8E4D1"/>
</svg>
