<svg id="Layer_1" data-name="Layer 1" xmlns="http://www.w3.org/2000/svg" viewBox="0 0 187.6188 228.8998"><defs><style>.cls-1,.cls-2{fill:#868c6d;}.cls-2{font-size:21px;font-family:Lato-Regular, Lato;}</style></defs><path class="cls-1" d="M94.3807,182.2647c-49.7372.0342-89.7454-41.0431-88.6637-90.7458C6.7383,44.5931,45.3474,4.0921,95.955,4.8753a88.7018,88.7018,0,0,1-1.5743,177.3894Zm59.005-91.0182a52.2794,52.2794,0,0,1-7.3361,20.4451,31.7552,31.7552,0,0,1-12.0588,11.5443c-8.495,4.4712-17.6009,5.2954-26.9841,4.4569a2.1039,2.1039,0,0,0-1.53.4857c-2.91,3.0706-5.8687,6.1078-8.5851,9.346a50.5257,50.5257,0,0,0-5.14,7.3168c-3.5228,6.1546-6.84,12.4272-10.24,18.6521-.159.291-.3175.5823-.6358,1.1663,2.526-1.2792,4.7612-2.3867,6.9642-3.5549.3048-.1616.46-.6176.6681-.9474,1.9557-3.0968,3.6875-6.3651,5.908-9.2582,4.3114-5.6171,9.7936-9.718,16.8351-11.3329,6.7809-1.5552,13.4749-.8365,20.0732,1.1094,1.8083.5334,3.5689,1.2285,5.35,1.8488a45.2035,45.2035,0,0,1-7.9177,13.0444c-6.2276,7.2552-14.04,11.14-23.6982,10.9714a44.9861,44.9861,0,0,1-15.4086-2.993,2.5807,2.5807,0,0,0-2.3656.1334Q83.66,165.65,79.977,167.5092a7.2329,7.2329,0,0,0-2.8182,2.4812c-1.5037,2.2094-3.1456,4.3245-4.7254,6.4823-.1766.2412-.3205.5064-.5227.8292a93.0491,93.0491,0,0,0,14.6982,2.5821A86.3691,86.3691,0,0,0,160.2424,149.82c15.9215-18.8133,22.6-40.6429,20.3095-65.1859a79.3015,79.3015,0,0,0-9.1516-30.73c-14.7251-27.1449-37.4274-42.7615-68.1361-46.52a77.3559,77.3559,0,0,0-26.54,1.326C49.172,14.9268,28.8811,30.67,16.3641,55.9849c-8.982,18.1659-10.87,37.3633-6.3913,57.1068a84.72,84.72,0,0,0,24.2323,42.807,85.6574,85.6574,0,0,0,34.4476,20.4592,1.241,1.241,0,0,0,1.68-.4956c2.1818-3.1,4.46-6.1327,6.6445-9.2308a1.9313,1.9313,0,0,0,.2283-1.5031q-2.3855-7.1379-4.9172-14.2262a2.9091,2.9091,0,0,0-1.3083-1.339c-2.7521-1.5231-5.6675-2.783-8.2994-4.4851-6.0348-3.9029-10.8674-8.9292-13.1467-15.9334-2.8429-8.7361-1.9064-17.39.9045-25.9536.0437-.1329.1884-.2327.3632-.439,1.7335.7286,3.5074,1.35,5.1637,2.2011a59.5715,59.5715,0,0,1,6.4245,3.6892c6.3775,4.3568,11.2433,9.9068,13.1776,17.6049s1.1,15.2681-1.1048,22.7758a3.1757,3.1757,0,0,0,.0567,1.8025c1.2282,3.62,2.5251,7.2177,3.7952,10.824.2118.6015.4022,1.21.6306,1.9012a3.9253,3.9253,0,0,0,.358-.3866,163.6223,163.6223,0,0,0,18.31-39.2032,1.6765,1.6765,0,0,0-.1149-1.2089q-2.3558-4.0264-4.8229-7.9868A1.6675,1.6675,0,0,0,91.55,114.12a55.2391,55.2391,0,0,1-14.9857-3.4114c-9.2922-3.5757-16.2608-9.62-20.0881-18.9929A52.5262,52.5262,0,0,1,52.815,73.295c-.04-1.2995-.0059-2.6013-.0059-3.9036.4136-.051.5686-.0865.7234-.0858.3591.0018.7194.0055,1.0769.0356A56.1215,56.1215,0,0,1,69.0631,72.428C79.47,76.19,86.9975,82.92,90.7505,93.527a53.5131,53.5131,0,0,1,2.9831,17.9637,2.8035,2.8035,0,0,0,.2113,1.378c1.5231,2.519,3.1076,5.0008,4.7275,7.5825.1368-.44.2714-.7993.36-1.1693,1.0944-4.57,2.3794-9.1067,3.22-13.7238.9694-5.3274,1.5625-10.7243,2.26-16.0988a1.9863,1.9863,0,0,0-.5234-1.4439,56.4253,56.4253,0,0,1-11.34-15.7633,33.9982,33.9982,0,0,1-3.0572-20.84c1.431-8.1245,5.1181-15.2075,10.0473-21.7092.8761-1.1556,1.8467-2.2394,2.8021-3.3906.4891.417.8351.6875,1.1537.9872a55.6086,55.6086,0,0,1,11.891,15.798A34.4554,34.4554,0,0,1,117.749,69.68a56.0767,56.0767,0,0,1-10.231,18.5307,5.3035,5.3035,0,0,0-1.0214,2.4326c-.416,2.6783-.6439,5.3852-1.02,8.0705a161.785,161.785,0,0,1-8.971,34.74c-.2083.5521-.4144,1.1049-.689,1.8378,2.8753-3.0034,5.6038-5.8025,8.2587-8.67a4.6633,4.6633,0,0,0,1.1261-2.1244,54.029,54.029,0,0,1,5.023-14.398c4.1446-7.9487,10.1226-13.8647,18.7221-16.8818a50.2781,50.2781,0,0,1,19.5673-2.4951C150.0924,90.8067,151.6622,91.0563,153.3857,91.2465ZM102.6915,29.2273c-.2763.2975-.4487.4614-.5962.6452a53.4215,53.4215,0,0,0-8.5883,14.85,32.9229,32.9229,0,0,0-2.0514,17.0211c1.1843,7.2409,4.5438,13.467,8.99,19.17,1.3012,1.6689,2.7424,3.2287,4.12,4.8385a149.1423,149.1423,0,0,0-1.1837-35.9358l2.2282-.2541c.5171,6.1015,1.2143,12.0084,1.4646,17.9341.2507,5.9352.0551,11.8892.0551,17.8965a52.5151,52.5151,0,0,0,8.4536-15.6156,33.1679,33.1679,0,0,0,1.7809-12.7092A35.144,35.144,0,0,0,113.23,43.1916,55.5685,55.5685,0,0,0,102.6915,29.2273ZM91.4969,109.193a40.3075,40.3075,0,0,0-1.3595-10.67c-1.655-6.54-4.4786-12.4515-9.57-17.0565C75.4029,76.7963,69.2,74.1818,62.5086,72.64c-2.4641-.5677-4.9821-.9013-7.6331-1.37,0,.6436.0035,1.0347-.0006,1.4259a48.4074,48.4074,0,0,0,1.7192,13.0065c2.2867,8.5873,6.78,15.6014,14.6222,20.1741a47.2074,47.2074,0,0,0,15.9145,5.608c1.1324.196,2.2755.3307,3.7033.5351a112.5558,112.5558,0,0,0-28.0772-27.801c.3251-.4818.5672-.8446.8139-1.204.09-.131.1911-.2542.3449-.4571A117.6658,117.6658,0,0,1,91.4969,109.193Zm16.5668,16.4958c.6788.0855,1.0224.154,1.3682.1687A54.176,54.176,0,0,0,123.48,124.9c6.0275-1.3291,11.5122-3.7469,15.9428-8.1836,6.5295-6.5383,9.74-14.7156,11.6536-23.6057a6.8416,6.8416,0,0,0-.7558-.1676,51.7778,51.7778,0,0,0-13.1256.3047c-5.9927.9389-11.59,2.8827-16.38,6.7468-5.2793,4.2586-8.6443,9.8542-11.0343,16.0886-.8708,2.2717-1.5311,4.6243-2.2874,6.94l.2841.1372a142.7687,142.7687,0,0,1,30.0274-20.4715l.9078,1.81A140.2186,140.2186,0,0,0,108.0637,125.6888Zm-17,36.2158c.7053.2451,1.174.4268,1.6538.5718a40.1613,40.1613,0,0,0,17.1113,1.7364,25.12,25.12,0,0,0,12.3054-5.1625,42.4858,42.4858,0,0,0,11.8914-15.3231,44.3014,44.3014,0,0,0-10.6985-2.6741A29.158,29.158,0,0,0,107.6122,142.9c-7.5066,3.3076-12.4208,9.27-16.2679,16.27-.0217.04.046.1281.1067.282a179.0771,179.0771,0,0,1,27.41-9.91l.56,1.931A177.7149,177.7149,0,0,0,91.0634,161.9046Zm-32.2843-42.091a206.4253,206.4253,0,0,1,14.2242,26.7926,64.7978,64.7978,0,0,0,1.3842-7.8518c1.0429-10.2059-1.6659-19.0285-9.7283-25.8238a45.2353,45.2353,0,0,0-12.8468-7.5747c-2.2794,8.4132-3.1645,16.7338.3317,24.9079,3.57,8.3456,10.5475,13.1162,18.6921,17.04a178.4986,178.4986,0,0,0-13.7709-26.4248Z"/><text class="cls-2" transform="translate(34.427 206.4621)">Plant-based</text></svg>